<svg width="105" height="29" viewBox="0 0 105 29" fill="none" xmlns="http://www.w3.org/2000/svg">
<path d="M3.15137 10.0898H1.00488L1.01855 8.61328H3.15137C3.73014 8.61328 4.21549 8.48568 4.60742 8.23047C4.99935 7.9707 5.29557 7.59928 5.49609 7.11621C5.69661 6.62858 5.79688 6.04525 5.79688 5.36621V4.85352C5.79688 4.32943 5.73991 3.86686 5.62598 3.46582C5.51204 3.06478 5.34342 2.72754 5.12012 2.4541C4.90137 2.18066 4.63021 1.97331 4.30664 1.83203C3.98307 1.69076 3.61165 1.62012 3.19238 1.62012H0.963867V0.136719H3.19238C3.85775 0.136719 4.46387 0.248372 5.01074 0.47168C5.56217 0.694987 6.03841 1.01628 6.43945 1.43555C6.84505 1.85026 7.15495 2.34701 7.36914 2.92578C7.58789 3.50456 7.69727 4.15169 7.69727 4.86719V5.36621C7.69727 6.07715 7.58789 6.72428 7.36914 7.30762C7.15495 7.88639 6.84505 8.38314 6.43945 8.79785C6.03841 9.21257 5.5599 9.53158 5.00391 9.75488C4.44792 9.97819 3.8304 10.0898 3.15137 10.0898ZM2.05762 0.136719V10.0898H0.177734V0.136719H2.05762ZM11.2998 0.136719V10.0898H9.41992V0.136719H11.2998ZM21.3896 4.86035V5.37305C21.3896 6.125 21.2894 6.80176 21.0889 7.40332C20.8883 8.00033 20.6035 8.50846 20.2344 8.92773C19.8652 9.34701 19.4255 9.66829 18.915 9.8916C18.4046 10.1149 17.8372 10.2266 17.2129 10.2266C16.5977 10.2266 16.0326 10.1149 15.5176 9.8916C15.0072 9.66829 14.5651 9.34701 14.1914 8.92773C13.8177 8.50846 13.5283 8.00033 13.3232 7.40332C13.1182 6.80176 13.0156 6.125 13.0156 5.37305V4.86035C13.0156 4.10384 13.1182 3.42708 13.3232 2.83008C13.5283 2.23307 13.8154 1.72493 14.1846 1.30566C14.5537 0.881836 14.9935 0.558268 15.5039 0.334961C16.0189 0.111654 16.584 0 17.1992 0C17.8236 0 18.391 0.111654 18.9014 0.334961C19.4118 0.558268 19.8516 0.881836 20.2207 1.30566C20.5944 1.72493 20.8815 2.23307 21.082 2.83008C21.2871 3.42708 21.3896 4.10384 21.3896 4.86035ZM19.4893 5.37305V4.84668C19.4893 4.30436 19.4391 3.82812 19.3389 3.41797C19.2386 3.00326 19.0905 2.65462 18.8945 2.37207C18.6986 2.08952 18.457 1.8776 18.1699 1.73633C17.8828 1.59049 17.5592 1.51758 17.1992 1.51758C16.8346 1.51758 16.5111 1.59049 16.2285 1.73633C15.9505 1.8776 15.7135 2.08952 15.5176 2.37207C15.3216 2.65462 15.1712 3.00326 15.0664 3.41797C14.9661 3.82812 14.916 4.30436 14.916 4.84668V5.37305C14.916 5.91081 14.9661 6.38704 15.0664 6.80176C15.1712 7.21647 15.3216 7.56738 15.5176 7.85449C15.7181 8.13704 15.9596 8.35124 16.2422 8.49707C16.5247 8.6429 16.8483 8.71582 17.2129 8.71582C17.5775 8.71582 17.901 8.6429 18.1836 8.49707C18.4661 8.35124 18.7031 8.13704 18.8945 7.85449C19.0905 7.56738 19.2386 7.21647 19.3389 6.80176C19.4391 6.38704 19.4893 5.91081 19.4893 5.37305Z" fill="black"/>
<path d="M6.33008 23.3965C6.33008 24.0026 6.1888 24.5176 5.90625 24.9414C5.62826 25.3607 5.25 25.6797 4.77148 25.8984C4.29753 26.1172 3.76204 26.2266 3.16504 26.2266C2.56803 26.2266 2.03027 26.1172 1.55176 25.8984C1.07324 25.6797 0.694987 25.3607 0.416992 24.9414C0.138997 24.5176 0 24.0026 0 23.3965C0 23 0.0751953 22.6377 0.225586 22.3096C0.380534 21.9769 0.597005 21.6875 0.875 21.4414C1.15755 21.1953 1.49023 21.0062 1.87305 20.874C2.26042 20.7373 2.68652 20.6689 3.15137 20.6689C3.76204 20.6689 4.30664 20.7874 4.78516 21.0244C5.26367 21.2568 5.63965 21.5781 5.91309 21.9883C6.19108 22.3984 6.33008 22.8678 6.33008 23.3965ZM5.05859 23.3691C5.05859 23 4.97884 22.6742 4.81934 22.3916C4.65983 22.1045 4.43652 21.8812 4.14941 21.7217C3.8623 21.5622 3.52962 21.4824 3.15137 21.4824C2.764 21.4824 2.42904 21.5622 2.14648 21.7217C1.86849 21.8812 1.65202 22.1045 1.49707 22.3916C1.34212 22.6742 1.26465 23 1.26465 23.3691C1.26465 23.752 1.33984 24.0801 1.49023 24.3535C1.64518 24.6224 1.86393 24.8298 2.14648 24.9756C2.43359 25.1169 2.77311 25.1875 3.16504 25.1875C3.55697 25.1875 3.89421 25.1169 4.17676 24.9756C4.45931 24.8298 4.67578 24.6224 4.82617 24.3535C4.98112 24.0801 5.05859 23.752 5.05859 23.3691ZM6.09766 18.7275C6.09766 19.2106 5.97005 19.6458 5.71484 20.0332C5.45964 20.4206 5.111 20.7259 4.66895 20.9492C4.22689 21.1725 3.72559 21.2842 3.16504 21.2842C2.59538 21.2842 2.08724 21.1725 1.64062 20.9492C1.19857 20.7259 0.852214 20.4206 0.601562 20.0332C0.350911 19.6458 0.225586 19.2106 0.225586 18.7275C0.225586 18.1488 0.350911 17.6566 0.601562 17.251C0.856771 16.8454 1.2054 16.5355 1.64746 16.3213C2.08952 16.1071 2.5931 16 3.1582 16C3.72786 16 4.23372 16.1071 4.67578 16.3213C5.11784 16.5355 5.46419 16.8454 5.71484 17.251C5.97005 17.6566 6.09766 18.1488 6.09766 18.7275ZM4.83301 18.748C4.83301 18.4154 4.76237 18.1214 4.62109 17.8662C4.47982 17.611 4.28385 17.4105 4.0332 17.2646C3.78255 17.1143 3.49089 17.0391 3.1582 17.0391C2.82552 17.0391 2.53385 17.1097 2.2832 17.251C2.03711 17.3877 1.84342 17.5837 1.70215 17.8389C1.56543 18.0941 1.49707 18.3971 1.49707 18.748C1.49707 19.0898 1.56543 19.3883 1.70215 19.6436C1.84342 19.8988 2.03939 20.097 2.29004 20.2383C2.54069 20.3796 2.83236 20.4502 3.16504 20.4502C3.49772 20.4502 3.78711 20.3796 4.0332 20.2383C4.28385 20.097 4.47982 19.8988 4.62109 19.6436C4.76237 19.3883 4.83301 19.0898 4.83301 18.748ZM9.77539 20.4912H10.6777C11.1198 20.4912 11.4844 20.4183 11.7715 20.2725C12.0632 20.1221 12.2796 19.9193 12.4209 19.6641C12.5667 19.4043 12.6396 19.1126 12.6396 18.7891C12.6396 18.4062 12.5758 18.085 12.4482 17.8252C12.3206 17.5654 12.1292 17.3695 11.874 17.2373C11.6188 17.1051 11.2952 17.0391 10.9033 17.0391C10.5479 17.0391 10.2334 17.1097 9.95996 17.251C9.69108 17.3877 9.47917 17.5837 9.32422 17.8389C9.17383 18.0941 9.09863 18.3949 9.09863 18.7412H7.83398C7.83398 18.2354 7.96159 17.7751 8.2168 17.3604C8.47201 16.9456 8.82975 16.6152 9.29004 16.3691C9.75488 16.123 10.2926 16 10.9033 16C11.5049 16 12.0312 16.1071 12.4824 16.3213C12.9336 16.5309 13.2845 16.8454 13.5352 17.2646C13.7858 17.6794 13.9111 18.1966 13.9111 18.8164C13.9111 19.0671 13.8519 19.3359 13.7334 19.623C13.6195 19.9056 13.4395 20.1699 13.1934 20.416C12.9518 20.6621 12.6374 20.8649 12.25 21.0244C11.8626 21.1794 11.3978 21.2568 10.8555 21.2568H9.77539V20.4912ZM9.77539 21.5303V20.7715H10.8555C11.4889 20.7715 12.013 20.8467 12.4277 20.9971C12.8424 21.1475 13.1683 21.348 13.4053 21.5986C13.6468 21.8493 13.8154 22.125 13.9111 22.4258C14.0114 22.722 14.0615 23.0182 14.0615 23.3145C14.0615 23.7793 13.9818 24.1917 13.8223 24.5518C13.6673 24.9118 13.4463 25.2171 13.1592 25.4678C12.8766 25.7184 12.5439 25.9076 12.1611 26.0352C11.7783 26.1628 11.3613 26.2266 10.9102 26.2266C10.4772 26.2266 10.0693 26.165 9.68652 26.042C9.30827 25.9189 8.97331 25.7412 8.68164 25.5088C8.38997 25.2718 8.16211 24.9824 7.99805 24.6406C7.83398 24.2943 7.75195 23.9001 7.75195 23.458H9.0166C9.0166 23.8044 9.0918 24.1074 9.24219 24.3672C9.39714 24.627 9.61589 24.8298 9.89844 24.9756C10.1855 25.1169 10.5228 25.1875 10.9102 25.1875C11.2975 25.1875 11.6302 25.1214 11.9082 24.9893C12.1908 24.8525 12.4072 24.6475 12.5576 24.374C12.7126 24.1006 12.79 23.7565 12.79 23.3418C12.79 22.9271 12.7035 22.5876 12.5303 22.3232C12.3571 22.0544 12.111 21.8561 11.792 21.7285C11.4775 21.5964 11.1061 21.5303 10.6777 21.5303H9.77539ZM17.0898 24.5859V25.6045C17.0898 26.0192 16.985 26.4567 16.7754 26.917C16.5658 27.3818 16.2718 27.7692 15.8936 28.0791L15.1758 27.5801C15.3216 27.3796 15.4447 27.1745 15.5449 26.9648C15.6452 26.7598 15.7204 26.5456 15.7705 26.3223C15.8252 26.1035 15.8525 25.8711 15.8525 25.625V24.5859H17.0898ZM20.4121 20.4912H21.3145C21.7565 20.4912 22.1211 20.4183 22.4082 20.2725C22.6999 20.1221 22.9163 19.9193 23.0576 19.6641C23.2035 19.4043 23.2764 19.1126 23.2764 18.7891C23.2764 18.4062 23.2126 18.085 23.085 17.8252C22.9574 17.5654 22.766 17.3695 22.5107 17.2373C22.2555 17.1051 21.932 17.0391 21.54 17.0391C21.1846 17.0391 20.8701 17.1097 20.5967 17.251C20.3278 17.3877 20.1159 17.5837 19.9609 17.8389C19.8105 18.0941 19.7354 18.3949 19.7354 18.7412H18.4707C18.4707 18.2354 18.5983 17.7751 18.8535 17.3604C19.1087 16.9456 19.4665 16.6152 19.9268 16.3691C20.3916 16.123 20.9294 16 21.54 16C22.1416 16 22.668 16.1071 23.1191 16.3213C23.5703 16.5309 23.9212 16.8454 24.1719 17.2646C24.4225 17.6794 24.5479 18.1966 24.5479 18.8164C24.5479 19.0671 24.4886 19.3359 24.3701 19.623C24.2562 19.9056 24.0762 20.1699 23.8301 20.416C23.5885 20.6621 23.2741 20.8649 22.8867 21.0244C22.4993 21.1794 22.0345 21.2568 21.4922 21.2568H20.4121V20.4912ZM20.4121 21.5303V20.7715H21.4922C22.1257 20.7715 22.6497 20.8467 23.0645 20.9971C23.4792 21.1475 23.805 21.348 24.042 21.5986C24.2835 21.8493 24.4521 22.125 24.5479 22.4258C24.6481 22.722 24.6982 23.0182 24.6982 23.3145C24.6982 23.7793 24.6185 24.1917 24.459 24.5518C24.304 24.9118 24.083 25.2171 23.7959 25.4678C23.5133 25.7184 23.1807 25.9076 22.7979 26.0352C22.415 26.1628 21.998 26.2266 21.5469 26.2266C21.1139 26.2266 20.7061 26.165 20.3232 26.042C19.945 25.9189 19.61 25.7412 19.3184 25.5088C19.0267 25.2718 18.7988 24.9824 18.6348 24.6406C18.4707 24.2943 18.3887 23.9001 18.3887 23.458H19.6533C19.6533 23.8044 19.7285 24.1074 19.8789 24.3672C20.0339 24.627 20.2526 24.8298 20.5352 24.9756C20.8223 25.1169 21.1595 25.1875 21.5469 25.1875C21.9342 25.1875 22.2669 25.1214 22.5449 24.9893C22.8275 24.8525 23.0439 24.6475 23.1943 24.374C23.3493 24.1006 23.4268 23.7565 23.4268 23.3418C23.4268 22.9271 23.3402 22.5876 23.167 22.3232C22.9938 22.0544 22.7477 21.8561 22.4287 21.7285C22.1143 21.5964 21.7428 21.5303 21.3145 21.5303H20.4121ZM31.3086 20.1631V26.0898H30.0371V18.6934H31.2402L31.3086 20.1631ZM31.0488 22.1113L30.4609 22.0908C30.4655 21.585 30.5316 21.1178 30.6592 20.6895C30.7868 20.2565 30.9759 19.8805 31.2266 19.5615C31.4772 19.2425 31.7894 18.9964 32.1631 18.8232C32.5368 18.6455 32.9697 18.5566 33.4619 18.5566C33.8083 18.5566 34.1273 18.6068 34.4189 18.707C34.7106 18.8027 34.9635 18.9554 35.1777 19.165C35.3919 19.3747 35.5583 19.6436 35.6768 19.9717C35.7952 20.2998 35.8545 20.6963 35.8545 21.1611V26.0898H34.5898V21.2227C34.5898 20.8353 34.5238 20.5254 34.3916 20.293C34.264 20.0605 34.0817 19.8919 33.8447 19.7871C33.6077 19.6777 33.3298 19.623 33.0107 19.623C32.637 19.623 32.3249 19.6891 32.0742 19.8213C31.8236 19.9535 31.623 20.1357 31.4727 20.3682C31.3223 20.6006 31.2129 20.8672 31.1445 21.168C31.0807 21.4642 31.0488 21.7786 31.0488 22.1113ZM35.8408 21.4141L34.9932 21.6738C34.9977 21.2682 35.0638 20.8786 35.1914 20.5049C35.3236 20.1312 35.5127 19.7985 35.7588 19.5068C36.0094 19.2152 36.3171 18.985 36.6816 18.8164C37.0462 18.6432 37.4632 18.5566 37.9326 18.5566C38.3291 18.5566 38.68 18.609 38.9854 18.7139C39.2952 18.8187 39.555 18.9805 39.7646 19.1992C39.9788 19.4134 40.1406 19.6891 40.25 20.0264C40.3594 20.3636 40.4141 20.7646 40.4141 21.2295V26.0898H39.1426V21.2158C39.1426 20.8011 39.0765 20.4798 38.9443 20.252C38.8167 20.0195 38.6344 19.8577 38.3975 19.7666C38.165 19.6709 37.887 19.623 37.5635 19.623C37.2855 19.623 37.0394 19.6709 36.8252 19.7666C36.611 19.8623 36.431 19.9945 36.2852 20.1631C36.1393 20.3271 36.0277 20.5163 35.9502 20.7305C35.8773 20.9447 35.8408 21.1725 35.8408 21.4141ZM43.7021 18.6934V26.0898H42.4307V18.6934H43.7021ZM42.335 16.7314C42.335 16.5264 42.3965 16.3532 42.5195 16.2119C42.6471 16.0706 42.834 16 43.0801 16C43.3216 16 43.5062 16.0706 43.6338 16.2119C43.766 16.3532 43.832 16.5264 43.832 16.7314C43.832 16.9274 43.766 17.096 43.6338 17.2373C43.5062 17.374 43.3216 17.4424 43.0801 17.4424C42.834 17.4424 42.6471 17.374 42.5195 17.2373C42.3965 17.096 42.335 16.9274 42.335 16.7314ZM47.1064 15.5898V26.0898H45.835V15.5898H47.1064ZM53.9834 18.6934V26.0898H52.7119V18.6934H53.9834ZM52.6162 16.7314C52.6162 16.5264 52.6777 16.3532 52.8008 16.2119C52.9284 16.0706 53.1152 16 53.3613 16C53.6029 16 53.7874 16.0706 53.915 16.2119C54.0472 16.3532 54.1133 16.5264 54.1133 16.7314C54.1133 16.9274 54.0472 17.096 53.915 17.2373C53.7874 17.374 53.6029 17.4424 53.3613 17.4424C53.1152 17.4424 52.9284 17.374 52.8008 17.2373C52.6777 17.096 52.6162 16.9274 52.6162 16.7314ZM57.2783 20.2725V26.0898H56.0137V18.6934H57.21L57.2783 20.2725ZM56.9775 22.1113L56.4512 22.0908C56.4557 21.585 56.5309 21.1178 56.6768 20.6895C56.8226 20.2565 57.0277 19.8805 57.292 19.5615C57.5563 19.2425 57.8708 18.9964 58.2354 18.8232C58.6045 18.6455 59.0124 18.5566 59.459 18.5566C59.8236 18.5566 60.1517 18.6068 60.4434 18.707C60.735 18.8027 60.9834 18.9577 61.1885 19.1719C61.3981 19.3861 61.5576 19.6641 61.667 20.0059C61.7764 20.3431 61.8311 20.7555 61.8311 21.2432V26.0898H60.5596V21.2295C60.5596 20.8421 60.5026 20.5322 60.3887 20.2998C60.2747 20.0628 60.1084 19.8919 59.8896 19.7871C59.6709 19.6777 59.402 19.623 59.083 19.623C58.7686 19.623 58.4814 19.6891 58.2217 19.8213C57.9665 19.9535 57.7454 20.1357 57.5586 20.3682C57.3763 20.6006 57.2327 20.8672 57.1279 21.168C57.0277 21.4642 56.9775 21.7786 56.9775 22.1113ZM68.0586 24.1279C68.0586 23.9456 68.0176 23.777 67.9355 23.6221C67.8581 23.4626 67.6963 23.319 67.4502 23.1914C67.2087 23.0592 66.8441 22.9453 66.3564 22.8496C65.9463 22.763 65.5749 22.6605 65.2422 22.542C64.9141 22.4235 64.6338 22.2799 64.4014 22.1113C64.1735 21.9427 63.998 21.7445 63.875 21.5166C63.752 21.2887 63.6904 21.0221 63.6904 20.7168C63.6904 20.4251 63.7542 20.1494 63.8818 19.8896C64.014 19.6299 64.1986 19.3997 64.4355 19.1992C64.6771 18.9987 64.9665 18.8415 65.3037 18.7275C65.641 18.6136 66.0169 18.5566 66.4316 18.5566C67.0241 18.5566 67.5299 18.6615 67.9492 18.8711C68.3685 19.0807 68.6898 19.361 68.9131 19.7119C69.1364 20.0583 69.248 20.4434 69.248 20.8672H67.9834C67.9834 20.6621 67.9219 20.4639 67.7988 20.2725C67.6803 20.0765 67.5049 19.9147 67.2725 19.7871C67.0446 19.6595 66.7643 19.5957 66.4316 19.5957C66.0807 19.5957 65.7959 19.6504 65.5771 19.7598C65.363 19.8646 65.2057 19.999 65.1055 20.1631C65.0098 20.3271 64.9619 20.5003 64.9619 20.6826C64.9619 20.8193 64.9847 20.9424 65.0303 21.0518C65.0804 21.1566 65.167 21.2546 65.29 21.3457C65.4131 21.4323 65.5863 21.5143 65.8096 21.5918C66.0329 21.6693 66.3177 21.7467 66.6641 21.8242C67.2702 21.9609 67.7692 22.125 68.1611 22.3164C68.5531 22.5078 68.8447 22.7425 69.0361 23.0205C69.2275 23.2985 69.3232 23.6357 69.3232 24.0322C69.3232 24.3558 69.2549 24.652 69.1182 24.9209C68.986 25.1898 68.7923 25.4222 68.5371 25.6182C68.2865 25.8096 67.9857 25.96 67.6348 26.0693C67.2884 26.1742 66.8988 26.2266 66.4658 26.2266C65.8141 26.2266 65.2627 26.1104 64.8115 25.8779C64.3604 25.6455 64.0186 25.3447 63.7861 24.9756C63.5537 24.6064 63.4375 24.2168 63.4375 23.8066H64.709C64.7272 24.153 64.8275 24.4287 65.0098 24.6338C65.1921 24.8343 65.4154 24.9779 65.6797 25.0645C65.944 25.1465 66.2061 25.1875 66.4658 25.1875C66.8122 25.1875 67.1016 25.1419 67.334 25.0508C67.571 24.9596 67.751 24.8343 67.874 24.6748C67.9971 24.5153 68.0586 24.333 68.0586 24.1279ZM73.9443 25.1875C74.2451 25.1875 74.5231 25.126 74.7783 25.0029C75.0335 24.8799 75.2432 24.7113 75.4072 24.4971C75.5713 24.2783 75.6647 24.0299 75.6875 23.752H76.8906C76.8678 24.1895 76.7197 24.5973 76.4463 24.9756C76.1774 25.3493 75.8242 25.6523 75.3867 25.8848C74.9492 26.1126 74.4684 26.2266 73.9443 26.2266C73.3883 26.2266 72.903 26.1286 72.4883 25.9326C72.0781 25.7367 71.7363 25.4678 71.4629 25.126C71.194 24.7842 70.9912 24.3923 70.8545 23.9502C70.7223 23.5036 70.6562 23.0319 70.6562 22.5352V22.248C70.6562 21.7513 70.7223 21.2819 70.8545 20.8398C70.9912 20.3932 71.194 19.999 71.4629 19.6572C71.7363 19.3154 72.0781 19.0465 72.4883 18.8506C72.903 18.6546 73.3883 18.5566 73.9443 18.5566C74.5231 18.5566 75.029 18.6751 75.4619 18.9121C75.8949 19.1445 76.2344 19.4635 76.4805 19.8691C76.7311 20.2702 76.8678 20.7259 76.8906 21.2363H75.6875C75.6647 20.931 75.5781 20.6553 75.4277 20.4092C75.2819 20.1631 75.0814 19.9671 74.8262 19.8213C74.5755 19.6709 74.2816 19.5957 73.9443 19.5957C73.557 19.5957 73.2311 19.6732 72.9668 19.8281C72.707 19.9785 72.4997 20.1836 72.3447 20.4434C72.1943 20.6986 72.085 20.9834 72.0166 21.2979C71.9528 21.6077 71.9209 21.9245 71.9209 22.248V22.5352C71.9209 22.8587 71.9528 23.1777 72.0166 23.4922C72.0804 23.8066 72.1875 24.0915 72.3379 24.3467C72.4928 24.6019 72.7002 24.807 72.96 24.9619C73.2243 25.1123 73.5524 25.1875 73.9443 25.1875ZM79.5771 19.8555V26.0898H78.3125V18.6934H79.543L79.5771 19.8555ZM81.8877 18.6523L81.8809 19.8281C81.776 19.8053 81.6758 19.7917 81.5801 19.7871C81.4889 19.778 81.3841 19.7734 81.2656 19.7734C80.974 19.7734 80.7165 19.819 80.4932 19.9102C80.2699 20.0013 80.0807 20.1289 79.9258 20.293C79.7708 20.457 79.6478 20.653 79.5566 20.8809C79.4701 21.1042 79.4131 21.3503 79.3857 21.6191L79.0303 21.8242C79.0303 21.3776 79.0736 20.9583 79.1602 20.5664C79.2513 20.1745 79.3903 19.8281 79.5771 19.5273C79.764 19.222 80.001 18.985 80.2881 18.8164C80.5798 18.6432 80.9261 18.5566 81.3271 18.5566C81.4183 18.5566 81.5231 18.568 81.6416 18.5908C81.7601 18.609 81.8421 18.6296 81.8877 18.6523ZM84.4307 18.6934V26.0898H83.1592V18.6934H84.4307ZM83.0635 16.7314C83.0635 16.5264 83.125 16.3532 83.248 16.2119C83.3757 16.0706 83.5625 16 83.8086 16C84.0501 16 84.2347 16.0706 84.3623 16.2119C84.4945 16.3532 84.5605 16.5264 84.5605 16.7314C84.5605 16.9274 84.4945 17.096 84.3623 17.2373C84.2347 17.374 84.0501 17.4424 83.8086 17.4424C83.5625 17.4424 83.3757 17.374 83.248 17.2373C83.125 17.096 83.0635 16.9274 83.0635 16.7314ZM89.5576 18.6934V19.6641H85.5586V18.6934H89.5576ZM86.9121 16.8955H88.1768V24.2578C88.1768 24.5085 88.2155 24.6976 88.293 24.8252C88.3704 24.9528 88.4707 25.0371 88.5938 25.0781C88.7168 25.1191 88.849 25.1396 88.9902 25.1396C89.0951 25.1396 89.2044 25.1305 89.3184 25.1123C89.4368 25.0895 89.5257 25.0713 89.585 25.0576L89.5918 26.0898C89.4915 26.1217 89.3594 26.1514 89.1953 26.1787C89.0358 26.2106 88.8421 26.2266 88.6143 26.2266C88.3044 26.2266 88.0195 26.165 87.7598 26.042C87.5 25.9189 87.2926 25.7139 87.1377 25.4268C86.9873 25.1351 86.9121 24.7432 86.9121 24.251V16.8955ZM90.5693 22.4736V22.3164C90.5693 21.7832 90.6468 21.2887 90.8018 20.833C90.9567 20.3727 91.18 19.974 91.4717 19.6367C91.7633 19.2949 92.1165 19.0306 92.5312 18.8438C92.946 18.6523 93.4108 18.5566 93.9258 18.5566C94.4453 18.5566 94.9124 18.6523 95.3271 18.8438C95.7464 19.0306 96.1019 19.2949 96.3936 19.6367C96.6898 19.974 96.9154 20.3727 97.0703 20.833C97.2253 21.2887 97.3027 21.7832 97.3027 22.3164V22.4736C97.3027 23.0068 97.2253 23.5013 97.0703 23.957C96.9154 24.4128 96.6898 24.8115 96.3936 25.1533C96.1019 25.4906 95.7487 25.7549 95.334 25.9463C94.9238 26.1331 94.459 26.2266 93.9395 26.2266C93.4199 26.2266 92.9528 26.1331 92.5381 25.9463C92.1234 25.7549 91.7679 25.4906 91.4717 25.1533C91.18 24.8115 90.9567 24.4128 90.8018 23.957C90.6468 23.5013 90.5693 23.0068 90.5693 22.4736ZM91.834 22.3164V22.4736C91.834 22.8428 91.8773 23.1914 91.9639 23.5195C92.0505 23.8431 92.1803 24.1302 92.3535 24.3809C92.5312 24.6315 92.7523 24.8298 93.0166 24.9756C93.2809 25.1169 93.5885 25.1875 93.9395 25.1875C94.2858 25.1875 94.5889 25.1169 94.8486 24.9756C95.113 24.8298 95.3317 24.6315 95.5049 24.3809C95.6781 24.1302 95.8079 23.8431 95.8945 23.5195C95.9857 23.1914 96.0312 22.8428 96.0312 22.4736V22.3164C96.0312 21.9518 95.9857 21.6077 95.8945 21.2842C95.8079 20.9561 95.6758 20.6667 95.498 20.416C95.3249 20.1608 95.1061 19.9603 94.8418 19.8145C94.582 19.6686 94.2767 19.5957 93.9258 19.5957C93.5794 19.5957 93.2741 19.6686 93.0098 19.8145C92.75 19.9603 92.5312 20.1608 92.3535 20.416C92.1803 20.6667 92.0505 20.9561 91.9639 21.2842C91.8773 21.6077 91.834 21.9518 91.834 22.3164ZM103.195 24.1279C103.195 23.9456 103.154 23.777 103.072 23.6221C102.995 23.4626 102.833 23.319 102.587 23.1914C102.345 23.0592 101.981 22.9453 101.493 22.8496C101.083 22.763 100.712 22.6605 100.379 22.542C100.051 22.4235 99.7705 22.2799 99.5381 22.1113C99.3102 21.9427 99.1348 21.7445 99.0117 21.5166C98.8887 21.2887 98.8271 21.0221 98.8271 20.7168C98.8271 20.4251 98.891 20.1494 99.0186 19.8896C99.1507 19.6299 99.3353 19.3997 99.5723 19.1992C99.8138 18.9987 100.103 18.8415 100.44 18.7275C100.778 18.6136 101.154 18.5566 101.568 18.5566C102.161 18.5566 102.667 18.6615 103.086 18.8711C103.505 19.0807 103.826 19.361 104.05 19.7119C104.273 20.0583 104.385 20.4434 104.385 20.8672H103.12C103.12 20.6621 103.059 20.4639 102.936 20.2725C102.817 20.0765 102.642 19.9147 102.409 19.7871C102.181 19.6595 101.901 19.5957 101.568 19.5957C101.217 19.5957 100.933 19.6504 100.714 19.7598C100.5 19.8646 100.342 19.999 100.242 20.1631C100.146 20.3271 100.099 20.5003 100.099 20.6826C100.099 20.8193 100.121 20.9424 100.167 21.0518C100.217 21.1566 100.304 21.2546 100.427 21.3457C100.55 21.4323 100.723 21.5143 100.946 21.5918C101.17 21.6693 101.454 21.7467 101.801 21.8242C102.407 21.9609 102.906 22.125 103.298 22.3164C103.69 22.5078 103.981 22.7425 104.173 23.0205C104.364 23.2985 104.46 23.6357 104.46 24.0322C104.46 24.3558 104.392 24.652 104.255 24.9209C104.123 25.1898 103.929 25.4222 103.674 25.6182C103.423 25.8096 103.122 25.96 102.771 26.0693C102.425 26.1742 102.035 26.2266 101.603 26.2266C100.951 26.2266 100.399 26.1104 99.9482 25.8779C99.4971 25.6455 99.1553 25.3447 98.9229 24.9756C98.6904 24.6064 98.5742 24.2168 98.5742 23.8066H99.8457C99.8639 24.153 99.9642 24.4287 100.146 24.6338C100.329 24.8343 100.552 24.9779 100.816 25.0645C101.081 25.1465 101.343 25.1875 101.603 25.1875C101.949 25.1875 102.238 25.1419 102.471 25.0508C102.708 24.9596 102.888 24.8343 103.011 24.6748C103.134 24.5153 103.195 24.333 103.195 24.1279Z" fill="#515151"/>
</svg>
